<?xml version="1.0" encoding="UTF-8"?>
<svg xmlns="http://www.w3.org/2000/svg" xmlns:xlink="http://www.w3.org/1999/xlink" width="193pt" height="193pt" viewBox="0 0 193 193" version="1.1">
<g id="surface1">
<path style=" stroke:none;fill-rule:evenodd;fill:rgb(100%,100%,100%);fill-opacity:1;" d="M 0 0.242188 L 192.757813 0.242188 L 192.757813 193 L 0 193 L 0 0.242188 "/>
<path style=" stroke:none;fill-rule:evenodd;fill:rgb(13.699341%,12.199402%,12.5%);fill-opacity:1;" d="M 31.882813 129.8125 C 31.671875 129.8125 28.796875 129.335938 26.777344 124.867188 C 25.074219 121.144531 24.753906 114.335938 23.265625 108.910156 C 22.148438 104.972656 20.074219 102.367188 19.011719 99.601563 L 17.46875 86.355469 C 14.648438 77.578125 12.945313 71.621094 15.765625 60.824219 C 15.765625 51.144531 23.53125 42.84375 30.660156 38.695313 L 32.042969 38.003906 L 160.554688 38.695313 L 161.140625 38.695313 C 168.589844 42.683594 178.164063 52.632813 178.164063 62.84375 C 178.375 74.121094 178.960938 79.8125 177.257813 88.429688 C 176.9375 97.261719 175.289063 99.601563 172.417969 106.089844 C 171.140625 109.070313 170.449219 113.113281 169.386719 120.292969 C 169.171875 121.886719 165.875 128.21875 164.8125 128.113281 L 162.578125 133.910156 C 161.140625 146.304688 153.695313 151.25 148.640625 154.335938 C 145.820313 166.199219 134.277344 170.773438 126.566406 174.496094 C 121.9375 176.730469 120.660156 180.132813 115.503906 181.730469 C 113.535156 182.316406 111.351563 183.273438 108.375 183.484375 L 101.566406 184.496094 C 101.085938 184.496094 100.660156 184.496094 100.234375 184.441406 C 100.660156 184.496094 101.085938 184.496094 101.566406 184.496094 L 95.128906 184.496094 C 88.480469 183.804688 79.917969 180.613281 71.882813 176.355469 L 69.757813 174.972656 C 69.222656 174.867188 49.863281 166.996094 47.203125 156.144531 C 43.105469 152.953125 32.363281 144.015625 31.40625 131.730469 L 31.882813 129.8125 "/>
<path style=" stroke:none;fill-rule:evenodd;fill:rgb(13.699341%,12.199402%,12.5%);fill-opacity:1;" d="M 97.734375 170.347656 L 96.777344 170.824219 L 96.40625 170.664063 C 96.351563 170.613281 96.300781 170.558594 96.191406 170.558594 C 38.214844 138.378906 26.988281 78.324219 33.214844 18.324219 C 44.542969 15.238281 66.140625 8.855469 95.234375 8.746094 C 113.90625 8.695313 135.820313 11.621094 159.652344 18.589844 C 166.355469 76.726563 155.183594 138.273438 97.734375 170.347656 "/>
<path style=" stroke:none;fill-rule:evenodd;fill:rgb(0%,65.098572%,31.399536%);fill-opacity:1;" d="M 96.246094 35.609375 L 158.695313 35.609375 L 159.011719 35.664063 C 161.40625 89.921875 146.832031 140.347656 97.46875 167.632813 L 96.566406 168.058594 L 96.246094 167.898438 C 96.140625 167.847656 96.085938 167.847656 96.035156 167.792969 C 46.40625 140.613281 31.566406 89.972656 33.957031 35.609375 L 96.246094 35.609375 "/>
<path style=" stroke:none;fill-rule:evenodd;fill:rgb(92.89856%,10.998535%,14.099121%);fill-opacity:1;" d="M 35.449219 19.8125 L 33.90625 36.726563 L 159.066406 36.355469 L 157.578125 20.183594 C 99.171875 3.214844 53.160156 15.078125 35.449219 19.8125 "/>
<path style=" stroke:none;fill-rule:evenodd;fill:rgb(13.699341%,12.199402%,12.5%);fill-opacity:1;" d="M 145.503906 36.355469 L 145.023438 16.675781 C 118.851563 8.960938 73.105469 8.589844 48.371094 16.40625 L 47.628906 36.355469 C 80.289063 36.460938 112.84375 36.460938 145.503906 36.355469 "/>
<path style=" stroke:none;fill-rule:evenodd;fill:rgb(100%,100%,100%);fill-opacity:1;" d="M 143.695313 36.355469 L 143.214844 16.675781 C 118.003906 8.960938 74.066406 8.589844 50.234375 16.40625 L 49.488281 36.355469 C 80.925781 36.460938 112.257813 36.460938 143.695313 36.355469 "/>
<path style=" stroke:none;fill-rule:evenodd;fill:rgb(13.699341%,12.199402%,12.5%);fill-opacity:1;" d="M 93.109375 29.175781 C 92.734375 28.480469 92.417969 27.789063 92.042969 27.101563 C 91.726563 27.789063 91.40625 28.535156 91.085938 29.226563 C 91.726563 29.226563 92.417969 29.226563 93.109375 29.175781 Z M 95.980469 32.789063 C 95.554688 32.789063 95.128906 32.789063 94.703125 32.789063 C 94.492188 32.257813 94.226563 31.78125 94.011719 31.246094 C 92.683594 31.300781 91.351563 31.300781 90.023438 31.355469 C 89.808594 31.835938 89.542969 32.367188 89.277344 32.84375 C 87.417969 32.84375 85.554688 32.898438 83.691406 32.898438 C 84.066406 32.207031 84.4375 31.515625 84.808594 30.824219 C 85.183594 30.132813 85.609375 29.441406 85.980469 28.695313 C 86.351563 28.003906 86.726563 27.257813 87.097656 26.515625 C 87.46875 25.769531 87.84375 25.023438 88.214844 24.28125 C 90.820313 24.066406 93.480469 23.90625 96.085938 23.960938 C 96.460938 24.707031 96.777344 25.503906 97.152344 26.246094 C 97.523438 26.992188 97.84375 27.738281 98.214844 28.535156 C 98.535156 29.28125 98.90625 30.023438 99.226563 30.714844 C 99.542969 31.460938 99.863281 32.152344 100.234375 32.898438 C 99.917969 32.898438 99.542969 32.898438 99.226563 32.84375 C 99.332031 32.949219 99.4375 33.058594 99.542969 33.164063 C 99.492188 33.164063 99.386719 33.21875 99.277344 33.269531 C 99.117188 33.324219 99.011719 33.324219 99.011719 33.324219 C 98.800781 33.429688 98.695313 33.480469 98.640625 33.535156 C 98.585938 33.589844 98.585938 33.640625 98.585938 33.746094 C 98.585938 34.015625 98.90625 34.175781 99.652344 34.175781 C 99.757813 34.175781 99.808594 34.175781 99.917969 34.175781 C 100.128906 34.175781 100.34375 34.121094 100.554688 34.121094 C 100.554688 34.28125 100.609375 34.441406 100.660156 34.546875 C 99.96875 34.707031 99.171875 34.757813 98.214844 34.757813 C 97.308594 34.757813 96.566406 34.652344 96.035156 34.386719 C 95.503906 34.121094 95.183594 33.855469 95.183594 33.480469 C 95.183594 33.164063 95.449219 32.949219 95.980469 32.789063 "/>
<path style=" stroke:none;fill-rule:evenodd;fill:rgb(13.699341%,12.199402%,12.5%);fill-opacity:1;" d="M 71.191406 33.058594 C 71.191406 32.417969 71.246094 31.78125 71.246094 31.140625 C 71.246094 30.449219 71.246094 29.8125 71.246094 29.175781 C 71.246094 28.535156 71.246094 27.898438 71.246094 27.257813 C 71.246094 26.621094 71.246094 25.980469 71.246094 25.34375 C 73.425781 25.238281 75.609375 25.078125 77.789063 24.972656 C 77.84375 25.449219 77.789063 25.980469 77.789063 26.460938 C 77.84375 26.992188 77.84375 27.472656 77.789063 27.949219 C 77.789063 28.480469 77.789063 28.960938 77.789063 29.441406 C 77.789063 29.972656 77.789063 30.449219 77.789063 30.980469 C 79.703125 30.929688 81.617188 30.875 83.53125 30.824219 C 83.53125 31.515625 83.53125 32.207031 83.480469 32.898438 C 79.382813 32.949219 75.289063 33.003906 71.191406 33.058594 "/>
<path style=" stroke:none;fill-rule:evenodd;fill:rgb(13.699341%,12.199402%,12.5%);fill-opacity:1;" d="M 61.457031 25.183594 C 61.882813 24.707031 62.308594 24.28125 62.789063 23.855469 C 64.117188 23.746094 65.449219 23.695313 66.777344 23.640625 C 65.660156 24.121094 64.597656 24.597656 63.480469 25.132813 C 62.789063 25.132813 62.097656 25.132813 61.457031 25.183594 "/>
<path style=" stroke:none;fill-rule:evenodd;fill:rgb(13.699341%,12.199402%,12.5%);fill-opacity:1;" d="M 69.222656 25.824219 C 68.691406 26.675781 68.105469 27.472656 67.574219 28.269531 C 67.097656 27.949219 66.511719 27.683594 65.875 27.523438 C 65.234375 27.3125 64.597656 27.257813 63.90625 27.257813 C 63.53125 27.3125 63.265625 27.3125 63.054688 27.417969 C 62.839844 27.472656 62.734375 27.578125 62.734375 27.683594 C 62.734375 27.84375 62.839844 27.949219 63.105469 28.058594 C 63.375 28.109375 64.066406 28.269531 65.074219 28.429688 C 66.617188 28.695313 67.628906 28.960938 68.160156 29.121094 C 69.011719 29.492188 69.4375 29.972656 69.4375 30.609375 C 69.4375 32.3125 67.042969 33.21875 62.308594 33.21875 C 60.605469 33.269531 59.117188 33.164063 57.839844 33.058594 C 57.203125 32.949219 56.40625 32.84375 55.554688 32.683594 C 56.085938 31.886719 56.617188 31.089844 57.203125 30.289063 C 57.628906 30.609375 58.160156 30.875 58.851563 31.089844 C 59.542969 31.300781 60.179688 31.40625 60.820313 31.40625 C 61.191406 31.40625 61.457031 31.355469 61.671875 31.300781 C 61.882813 31.195313 61.988281 31.089844 61.988281 30.980469 C 61.988281 30.769531 61.566406 30.558594 60.765625 30.398438 C 60.339844 30.34375 59.914063 30.238281 59.4375 30.132813 C 58.320313 29.917969 57.523438 29.652344 57.042969 29.441406 C 56.457031 29.066406 56.140625 28.640625 56.140625 28.109375 C 56.140625 27.363281 56.777344 26.78125 58 26.300781 C 59.222656 25.875 60.980469 25.664063 63.265625 25.558594 C 64.277344 25.558594 65.339844 25.558594 66.40625 25.609375 C 67.46875 25.609375 68.425781 25.714844 69.222656 25.824219 "/>
<path style=" stroke:none;fill-rule:evenodd;fill:rgb(13.699341%,12.199402%,12.5%);fill-opacity:1;" d="M 118.90625 33.164063 C 118.90625 32.738281 118.90625 32.3125 118.960938 31.941406 C 118.960938 31.460938 118.960938 30.980469 118.960938 30.558594 C 118.960938 30.078125 118.960938 29.652344 118.960938 29.175781 C 118.960938 28.800781 118.960938 28.429688 118.960938 28.058594 C 118.90625 27.683594 118.90625 27.3125 118.90625 26.941406 C 118.90625 26.78125 118.90625 26.566406 118.90625 26.355469 C 118.851563 25.980469 118.851563 25.609375 118.851563 25.183594 C 119.332031 25.238281 119.863281 25.289063 120.394531 25.34375 C 120.769531 25.34375 121.195313 25.398438 121.617188 25.398438 C 122.046875 25.449219 121.886719 25.398438 122.3125 25.449219 C 122.789063 25.449219 123.269531 25.503906 123.746094 25.503906 C 123.746094 25.875 123.746094 26.246094 123.800781 26.621094 C 123.800781 26.941406 123.800781 27.257813 123.800781 27.523438 C 124.546875 27.257813 125.234375 26.886719 125.875 26.566406 C 126.511719 26.195313 127.152344 25.875 127.789063 25.714844 C 128.960938 25.714844 130.023438 25.714844 131.089844 25.714844 C 132.152344 25.769531 133.160156 25.769531 134.277344 25.875 C 133.480469 26.40625 132.683594 26.941406 131.832031 27.523438 C 131.035156 28.058594 130.234375 28.589844 129.4375 29.175781 C 129.332031 29.175781 129.226563 29.226563 129.066406 29.28125 C 129.171875 29.28125 129.277344 29.386719 129.386719 29.441406 L 129.386719 29.386719 C 129.332031 29.335938 129.277344 29.28125 129.226563 29.226563 C 129.277344 29.226563 129.332031 29.28125 129.386719 29.335938 C 129.492188 29.386719 129.546875 29.492188 129.652344 29.546875 C 129.703125 29.597656 129.757813 29.597656 129.757813 29.652344 C 130.554688 30.238281 131.300781 30.824219 132.046875 31.460938 C 132.84375 32.046875 133.589844 32.632813 134.386719 33.21875 C 133.589844 33.21875 132.738281 33.21875 131.9375 33.21875 C 131.140625 33.269531 130.34375 33.269531 129.546875 33.269531 C 129.332031 33.21875 129.171875 33.164063 129.011719 33.109375 C 128.960938 33.109375 128.90625 33.109375 128.90625 33.109375 C 128.320313 32.789063 127.84375 32.523438 127.363281 32.257813 C 127.152344 32.152344 126.9375 32.046875 126.40625 31.726563 C 126.300781 31.675781 126.140625 31.566406 126.035156 31.515625 C 125.609375 31.246094 125.128906 31.035156 124.546875 30.664063 C 124.332031 30.769531 124.117188 30.824219 123.855469 30.929688 C 123.855469 31.035156 123.855469 31.089844 123.855469 31.195313 C 123.855469 31.566406 123.855469 31.886719 123.800781 32.152344 C 123.800781 32.523438 123.800781 32.898438 123.800781 33.21875 C 123.320313 33.21875 122.84375 33.21875 122.363281 33.21875 C 121.777344 33.21875 121.195313 33.164063 120.660156 33.164063 C 120.078125 33.164063 119.492188 33.164063 118.90625 33.164063 "/>
<path style=" stroke:none;fill-rule:evenodd;fill:rgb(13.699341%,12.199402%,12.5%);fill-opacity:1;" d="M 104.066406 28.90625 Z M 109.011719 24.757813 Z M 104.066406 28.90625 C 104.066406 28.90625 104.066406 28.90625 104.066406 28.855469 C 104.066406 28.90625 104.066406 28.90625 104.117188 28.90625 C 104.332031 29.015625 104.542969 29.121094 104.8125 29.175781 C 105.074219 29.28125 105.394531 29.386719 105.714844 29.492188 C 106.035156 29.546875 106.40625 29.652344 106.832031 29.707031 C 107.203125 29.8125 107.628906 29.867188 108.109375 29.972656 C 108.214844 29.972656 108.375 29.972656 108.480469 30.023438 C 108.960938 30.078125 109.4375 30.183594 109.863281 30.238281 C 110.078125 30.289063 110.234375 30.289063 110.394531 30.34375 C 110.554688 30.34375 110.714844 30.398438 110.820313 30.398438 C 110.925781 30.449219 111.085938 30.449219 111.191406 30.503906 C 111.300781 30.503906 111.40625 30.558594 111.511719 30.558594 C 111.617188 30.609375 111.671875 30.609375 111.726563 30.664063 C 111.777344 30.664063 111.832031 30.714844 111.886719 30.714844 C 111.9375 30.714844 111.9375 30.714844 111.9375 30.714844 C 111.9375 30.769531 111.992188 30.769531 111.992188 30.824219 C 112.046875 30.824219 112.046875 30.824219 112.046875 30.875 L 112.097656 30.875 C 112.097656 30.929688 112.097656 30.929688 112.097656 30.929688 C 112.097656 30.929688 112.097656 30.980469 112.046875 30.980469 C 112.046875 31.035156 111.992188 31.089844 111.992188 31.089844 C 111.9375 31.140625 111.832031 31.195313 111.777344 31.246094 C 111.671875 31.246094 111.566406 31.300781 111.460938 31.355469 C 111.351563 31.40625 111.191406 31.460938 111.035156 31.460938 C 110.660156 31.566406 110.234375 31.566406 109.863281 31.566406 C 109.597656 31.566406 109.386719 31.566406 109.117188 31.566406 C 108.851563 31.566406 108.640625 31.566406 108.375 31.515625 C 108.160156 31.515625 107.949219 31.515625 107.789063 31.460938 C 107.574219 31.40625 107.417969 31.355469 107.257813 31.355469 C 107.046875 31.300781 106.9375 31.246094 106.777344 31.195313 C 106.671875 31.140625 106.511719 31.035156 106.40625 30.980469 C 106.300781 30.929688 106.246094 30.824219 106.140625 30.769531 C 106.140625 30.714844 106.085938 30.664063 106.085938 30.664063 C 106.035156 30.609375 105.980469 30.609375 105.980469 30.558594 C 105.925781 30.558594 105.925781 30.558594 105.925781 30.558594 C 105.234375 30.503906 104.542969 30.449219 103.851563 30.398438 C 103.214844 30.398438 102.523438 30.34375 101.832031 30.289063 C 101.777344 30.289063 101.777344 30.289063 101.726563 30.289063 C 101.726563 30.34375 101.726563 30.34375 101.726563 30.398438 C 101.832031 30.664063 101.886719 30.875 102.046875 31.140625 C 102.152344 31.355469 102.308594 31.566406 102.46875 31.78125 C 102.683594 31.941406 102.894531 32.152344 103.160156 32.3125 C 103.375 32.472656 103.640625 32.632813 103.960938 32.738281 C 104.277344 32.898438 104.597656 33.003906 104.96875 33.109375 C 105.34375 33.21875 105.769531 33.269531 106.191406 33.324219 C 106.617188 33.429688 107.046875 33.429688 107.523438 33.480469 C 108.003906 33.535156 108.535156 33.535156 109.066406 33.535156 C 109.4375 33.535156 109.8125 33.535156 110.128906 33.535156 C 110.503906 33.535156 110.820313 33.480469 111.140625 33.480469 C 111.460938 33.480469 111.726563 33.429688 112.046875 33.375 C 112.3125 33.375 112.578125 33.324219 112.84375 33.269531 C 113.109375 33.21875 113.320313 33.164063 113.535156 33.109375 C 113.746094 33.058594 113.960938 33.003906 114.117188 32.949219 C 114.117188 32.949219 114.171875 32.949219 114.226563 32.949219 C 114.4375 32.84375 114.597656 32.789063 114.757813 32.683594 C 114.917969 32.632813 115.023438 32.578125 115.128906 32.523438 C 115.183594 32.472656 115.234375 32.472656 115.289063 32.417969 C 115.449219 32.3125 115.554688 32.207031 115.660156 32.101563 C 115.929688 31.941406 116.085938 31.675781 116.191406 31.40625 C 116.191406 31.300781 116.246094 31.140625 116.246094 31.035156 C 116.246094 30.875 116.246094 30.769531 116.191406 30.664063 C 116.085938 30.238281 116.085938 30.238281 115.820313 29.917969 C 115.714844 29.8125 115.609375 29.757813 115.503906 29.652344 C 115.503906 29.652344 115.449219 29.652344 115.449219 29.597656 C 115.34375 29.546875 115.183594 29.441406 115.078125 29.386719 C 114.917969 29.28125 114.757813 29.175781 114.597656 29.121094 C 114.4375 29.066406 114.226563 28.960938 114.066406 28.90625 C 113.851563 28.855469 113.691406 28.800781 113.480469 28.746094 C 113.269531 28.695313 113.054688 28.589844 112.789063 28.535156 C 112.523438 28.480469 112.257813 28.429688 111.9375 28.375 C 111.617188 28.324219 111.246094 28.214844 110.875 28.164063 C 110.554688 28.109375 110.128906 28.058594 109.703125 27.949219 C 109.332031 27.898438 108.960938 27.84375 108.640625 27.738281 C 108.269531 27.683594 108.003906 27.632813 107.734375 27.578125 C 107.46875 27.472656 107.257813 27.417969 107.097656 27.363281 C 106.9375 27.3125 106.777344 27.257813 106.671875 27.257813 C 106.617188 27.207031 106.511719 27.152344 106.40625 27.046875 L 106.40625 26.992188 C 106.460938 26.941406 106.511719 26.941406 106.566406 26.941406 C 106.566406 26.886719 106.617188 26.886719 106.726563 26.886719 C 106.832031 26.832031 106.992188 26.78125 107.152344 26.78125 C 107.308594 26.78125 107.46875 26.726563 107.628906 26.726563 C 107.84375 26.726563 108.054688 26.726563 108.269531 26.726563 C 108.425781 26.726563 108.691406 26.78125 108.90625 26.78125 C 109.171875 26.78125 109.386719 26.832031 109.597656 26.832031 C 109.8125 26.886719 109.96875 26.886719 110.128906 26.941406 C 110.289063 26.992188 110.449219 26.992188 110.609375 27.046875 C 110.714844 27.101563 110.875 27.152344 110.980469 27.152344 C 111.035156 27.207031 111.140625 27.257813 111.191406 27.3125 C 111.246094 27.363281 111.351563 27.417969 111.40625 27.472656 L 111.460938 27.523438 L 111.460938 27.578125 C 111.511719 27.578125 111.511719 27.578125 111.566406 27.578125 C 112.257813 27.632813 112.949219 27.683594 113.640625 27.738281 C 114.332031 27.789063 115.023438 27.84375 115.714844 27.898438 C 115.769531 27.898438 115.769531 27.898438 115.820313 27.898438 C 115.820313 27.84375 115.820313 27.84375 115.820313 27.789063 C 115.769531 27.632813 115.714844 27.472656 115.660156 27.3125 C 115.554688 27.101563 115.449219 26.941406 115.289063 26.832031 C 115.128906 26.675781 114.96875 26.515625 114.703125 26.355469 C 114.492188 26.195313 114.277344 26.089844 114.011719 25.980469 C 113.960938 25.980469 113.960938 25.929688 113.960938 25.929688 C 113.640625 25.824219 113.320313 25.714844 113.003906 25.609375 C 112.628906 25.503906 112.257813 25.398438 111.832031 25.289063 C 111.40625 25.183594 110.980469 25.132813 110.503906 25.023438 C 110.023438 24.972656 109.546875 24.917969 109.011719 24.863281 C 108.691406 24.8125 108.375 24.8125 108.054688 24.757813 C 107.734375 24.757813 107.46875 24.707031 107.152344 24.707031 C 106.886719 24.707031 106.617188 24.707031 106.351563 24.707031 C 106.085938 24.707031 105.820313 24.757813 105.554688 24.757813 C 105.34375 24.8125 105.128906 24.8125 104.917969 24.863281 C 104.703125 24.917969 104.492188 24.972656 104.277344 25.023438 C 104.117188 25.078125 103.90625 25.132813 103.746094 25.183594 C 103.585938 25.289063 103.425781 25.34375 103.320313 25.449219 C 103.160156 25.558594 103.054688 25.609375 102.949219 25.714844 C 102.789063 25.824219 102.734375 25.929688 102.628906 26.035156 C 102.574219 26.195313 102.523438 26.300781 102.46875 26.40625 C 102.417969 26.566406 102.417969 26.675781 102.417969 26.832031 C 102.417969 27.046875 102.417969 27.257813 102.523438 27.417969 C 102.574219 27.632813 102.734375 27.789063 102.84375 28.003906 C 103.003906 28.164063 103.214844 28.324219 103.375 28.480469 C 103.585938 28.640625 103.800781 28.746094 104.066406 28.855469 C 104.066406 28.90625 104.066406 28.90625 104.066406 28.90625 Z M 106.460938 26.992188 C 106.460938 26.992188 106.460938 26.992188 106.40625 26.992188 C 106.40625 26.992188 106.40625 26.992188 106.460938 26.992188 Z M 106.671875 27.257813 L 106.671875 27.257813 "/>
<path style=" stroke:none;fill-rule:evenodd;fill:rgb(13.699341%,12.199402%,12.5%);fill-opacity:1;" d="M 72.949219 22.097656 C 72.894531 22.046875 72.894531 21.992188 72.84375 21.941406 C 72.628906 21.566406 72.46875 21.246094 72.308594 20.929688 C 72.152344 20.664063 71.992188 20.34375 71.832031 20.132813 C 71.671875 19.8125 71.511719 19.492188 71.351563 19.175781 C 71.191406 18.90625 71.03125 18.589844 70.875 18.324219 C 70.609375 17.789063 70.339844 17.363281 70.128906 16.9375 C 70.023438 16.832031 69.96875 16.726563 69.914063 16.621094 C 69.757813 16.40625 69.597656 16.140625 69.4375 15.875 C 69.332031 15.558594 69.171875 15.289063 69.011719 14.917969 L 68.957031 14.8125 L 69.066406 14.8125 C 69.757813 14.8125 70.449219 14.703125 71.140625 14.597656 C 71.722656 14.546875 72.308594 14.441406 72.949219 14.441406 C 72.949219 14.386719 73 14.332031 73 14.332031 L 73.054688 14.386719 C 73.105469 14.386719 73.105469 14.386719 73.105469 14.386719 L 73.105469 14.492188 C 73.160156 14.546875 73.214844 14.652344 73.265625 14.703125 C 73.585938 15.34375 73.90625 15.980469 74.171875 16.621094 C 74.332031 16.9375 74.542969 17.3125 74.703125 17.683594 C 74.863281 18.058594 75.074219 18.375 75.234375 18.746094 C 75.34375 18.589844 75.449219 18.429688 75.5 18.269531 C 75.660156 18.058594 75.765625 17.898438 75.875 17.683594 C 75.980469 17.472656 76.140625 17.3125 76.246094 17.097656 C 76.351563 16.886719 76.457031 16.675781 76.617188 16.515625 C 76.832031 16.140625 77.042969 15.769531 77.308594 15.289063 C 77.414063 15.132813 77.523438 14.917969 77.683594 14.703125 C 77.789063 14.492188 77.894531 14.28125 78.054688 14.066406 L 78.054688 14.015625 C 78.109375 14.015625 78.109375 13.960938 78.109375 13.960938 L 78.109375 13.90625 L 78.160156 13.90625 C 78.90625 13.855469 79.648438 13.800781 80.394531 13.746094 C 81.140625 13.695313 81.832031 13.589844 82.574219 13.535156 L 82.628906 13.535156 L 82.683594 13.589844 C 82.683594 13.640625 82.683594 13.640625 82.683594 13.695313 C 82.734375 13.695313 82.734375 13.695313 82.734375 13.746094 C 82.84375 13.90625 82.894531 14.066406 83 14.226563 C 83.109375 14.441406 83.269531 14.703125 83.375 14.917969 C 83.480469 15.078125 83.53125 15.238281 83.640625 15.398438 C 83.746094 15.664063 83.90625 15.875 84.011719 16.140625 C 84.117188 16.300781 84.171875 16.515625 84.277344 16.675781 C 84.382813 16.9375 84.542969 17.152344 84.652344 17.417969 C 84.808594 17.738281 85.023438 18.058594 85.183594 18.375 C 85.183594 18.429688 85.183594 18.429688 85.234375 18.535156 C 85.234375 18.480469 85.234375 18.480469 85.234375 18.480469 C 85.234375 18.480469 85.234375 18.429688 85.234375 18.480469 C 85.394531 18.109375 85.609375 17.738281 85.765625 17.363281 C 85.875 17.097656 86.035156 16.78125 86.191406 16.460938 C 86.246094 16.355469 86.300781 16.195313 86.40625 16.035156 C 86.460938 15.929688 86.511719 15.769531 86.671875 15.503906 C 86.777344 15.238281 86.882813 14.972656 86.992188 14.703125 C 87.097656 14.546875 87.152344 14.386719 87.257813 14.171875 C 87.363281 13.90625 87.523438 13.640625 87.628906 13.375 C 87.628906 13.375 87.628906 13.375 87.628906 13.324219 C 87.683594 13.269531 87.683594 13.269531 87.683594 13.214844 L 87.734375 13.164063 L 87.789063 13.164063 C 88.425781 13.109375 89.117188 13.109375 89.808594 13.058594 C 90.449219 13.003906 91.140625 13.003906 91.832031 12.949219 L 91.992188 12.949219 L 91.882813 13.058594 C 91.882813 13.164063 91.832031 13.214844 91.777344 13.324219 C 91.777344 13.375 91.726563 13.429688 91.726563 13.429688 C 91.511719 13.800781 91.351563 14.171875 91.191406 14.492188 C 90.980469 14.863281 90.820313 15.238281 90.5 15.824219 C 90.183594 16.460938 89.863281 17.097656 89.542969 17.738281 C 89.332031 18.164063 89.117188 18.589844 88.90625 19.015625 C 88.746094 19.335938 88.585938 19.597656 88.480469 19.8125 C 88.269531 20.183594 88.109375 20.558594 87.894531 20.929688 C 87.734375 21.246094 87.578125 21.566406 87.46875 21.886719 C 87.417969 21.941406 87.417969 21.941406 87.417969 21.992188 C 87.417969 21.992188 87.363281 21.992188 87.363281 22.046875 L 87.363281 22.097656 L 87.308594 22.097656 C 86.617188 22.097656 85.980469 22.097656 85.34375 22.097656 C 84.652344 22.097656 84.011719 22.097656 83.375 22.097656 L 83.320313 22.097656 L 83.269531 22.046875 C 83.269531 22.046875 83.269531 21.992188 83.214844 21.992188 C 83.214844 21.941406 83.214844 21.941406 83.214844 21.886719 C 83.054688 21.675781 82.949219 21.40625 82.789063 21.140625 C 82.683594 20.980469 82.574219 20.769531 82.414063 20.558594 C 82.308594 20.34375 82.203125 20.183594 82.152344 20.023438 C 81.992188 19.757813 81.777344 19.441406 81.671875 19.226563 C 81.511719 18.855469 81.300781 18.535156 81.085938 18.214844 C 81.03125 18.109375 80.980469 18.003906 80.925781 17.898438 C 80.875 17.789063 80.875 17.738281 80.820313 17.683594 C 80.609375 17.363281 80.449219 17.046875 80.289063 16.726563 C 80.183594 16.886719 80.023438 17.046875 79.917969 17.257813 C 79.808594 17.472656 79.648438 17.738281 79.542969 17.949219 C 79.4375 18.058594 79.382813 18.214844 79.277344 18.324219 C 79.117188 18.695313 78.90625 19.015625 78.746094 19.28125 C 78.585938 19.492188 78.480469 19.703125 78.375 19.917969 C 78.214844 20.132813 78.109375 20.34375 77.949219 20.609375 C 77.683594 21.035156 77.46875 21.40625 77.257813 21.726563 C 77.203125 21.832031 77.203125 21.832031 77.152344 21.941406 L 77.152344 21.992188 C 77.097656 21.992188 77.097656 22.046875 77.097656 22.046875 L 77.042969 22.097656 Z M 92.628906 22.097656 L 92.628906 21.992188 C 92.628906 21.621094 92.628906 21.246094 92.628906 20.875 C 92.628906 20.503906 92.628906 20.132813 92.628906 19.757813 C 92.628906 19.386719 92.628906 19.015625 92.628906 18.640625 C 92.683594 18.269531 92.683594 17.898438 92.683594 17.523438 C 92.683594 17.097656 92.683594 16.726563 92.683594 16.355469 C 92.734375 15.980469 92.734375 15.609375 92.734375 15.238281 C 92.734375 14.972656 92.734375 14.703125 92.789063 14.441406 C 92.789063 13.960938 92.789063 13.480469 92.789063 13.003906 L 92.789063 12.898438 L 92.894531 12.898438 C 93.53125 12.898438 94.226563 12.898438 94.863281 12.898438 C 95.554688 12.84375 96.191406 12.84375 96.882813 12.84375 L 96.9375 12.84375 L 96.9375 12.949219 C 96.9375 13.269531 96.9375 13.589844 96.9375 13.90625 C 96.882813 14.171875 96.882813 14.492188 96.882813 14.757813 C 96.882813 15.023438 96.882813 15.34375 96.832031 15.664063 C 96.832031 15.875 96.832031 16.140625 96.832031 16.40625 C 97.308594 16.140625 97.84375 15.875 98.320313 15.609375 C 98.90625 15.34375 99.4375 15.023438 99.96875 14.757813 C 100.554688 14.492188 101.085938 14.226563 101.617188 13.960938 C 102.203125 13.640625 102.734375 13.375 103.269531 13.109375 C 103.320313 13.109375 103.375 13.109375 103.375 13.109375 L 103.425781 13.109375 C 104.226563 13.164063 104.96875 13.214844 105.714844 13.214844 C 106.511719 13.269531 107.257813 13.324219 108.003906 13.375 L 108.054688 13.375 L 108.054688 13.429688 C 108.109375 13.535156 108.109375 13.589844 108.109375 13.640625 C 108.160156 13.746094 108.160156 13.855469 108.214844 13.90625 L 108.214844 14.015625 L 108.160156 14.015625 C 107.84375 14.171875 107.523438 14.28125 107.257813 14.441406 C 106.511719 14.703125 105.820313 15.023438 105.128906 15.34375 C 104.226563 15.714844 103.320313 16.140625 102.417969 16.566406 C 102.363281 16.621094 102.257813 16.675781 102.203125 16.675781 C 102.308594 16.832031 102.46875 16.886719 102.523438 16.992188 C 102.894531 17.257813 103.269531 17.578125 103.640625 17.898438 C 103.90625 18.058594 104.171875 18.269531 104.4375 18.480469 C 104.703125 18.746094 104.96875 18.90625 105.183594 19.121094 C 105.34375 19.226563 105.554688 19.386719 105.714844 19.492188 C 106.085938 19.757813 106.40625 20.078125 106.777344 20.34375 C 107.097656 20.609375 107.46875 20.875 107.84375 21.140625 C 108.003906 21.246094 108.214844 21.40625 108.320313 21.515625 L 108.375 21.566406 L 108.375 21.621094 C 108.320313 21.675781 108.320313 21.726563 108.320313 21.726563 C 108.269531 21.832031 108.214844 21.941406 108.214844 22.046875 L 108.160156 22.097656 L 108.109375 22.097656 C 106.671875 22.097656 105.183594 22.097656 103.746094 22.097656 L 103.691406 22.097656 C 103.691406 22.046875 103.640625 22.046875 103.640625 22.046875 C 103.585938 22.046875 103.535156 22.046875 103.535156 21.992188 L 103.480469 21.992188 C 103.375 21.886719 103.214844 21.78125 103.109375 21.675781 C 102.46875 21.140625 101.886719 20.609375 101.246094 20.078125 C 100.769531 19.652344 100.234375 19.175781 99.757813 18.746094 C 99.542969 18.535156 99.277344 18.324219 99.117188 18.164063 C 98.960938 18.269531 98.800781 18.324219 98.640625 18.429688 C 98 18.746094 97.363281 19.066406 96.726563 19.386719 C 96.726563 19.652344 96.726563 19.917969 96.726563 20.238281 C 96.726563 20.398438 96.726563 20.503906 96.726563 20.664063 C 96.726563 21.089844 96.726563 21.566406 96.726563 21.992188 L 96.726563 22.097656 Z M 112.84375 19.386719 L 112.894531 19.386719 C 112.894531 19.441406 112.949219 19.441406 112.949219 19.492188 C 113.003906 19.492188 113.003906 19.546875 113.054688 19.546875 C 113.109375 19.652344 113.214844 19.703125 113.320313 19.8125 C 113.425781 19.863281 113.535156 19.917969 113.691406 19.972656 C 113.800781 20.023438 113.960938 20.078125 114.117188 20.132813 C 114.277344 20.132813 114.492188 20.183594 114.652344 20.238281 C 114.863281 20.238281 115.078125 20.289063 115.289063 20.289063 C 115.503906 20.289063 115.769531 20.34375 115.980469 20.34375 C 116.246094 20.34375 116.511719 20.34375 116.726563 20.289063 C 116.992188 20.289063 117.203125 20.289063 117.363281 20.238281 C 117.578125 20.238281 117.734375 20.238281 117.894531 20.183594 C 118.054688 20.132813 118.214844 20.132813 118.320313 20.078125 C 118.425781 20.023438 118.535156 19.972656 118.640625 19.917969 C 118.695313 19.917969 118.800781 19.863281 118.851563 19.8125 C 118.851563 19.757813 118.90625 19.757813 118.90625 19.703125 C 118.960938 19.703125 118.960938 19.652344 118.960938 19.652344 L 118.960938 19.597656 L 118.90625 19.597656 L 118.90625 19.546875 C 118.90625 19.546875 118.90625 19.546875 118.851563 19.546875 C 118.851563 19.492188 118.800781 19.492188 118.746094 19.441406 C 118.695313 19.441406 118.640625 19.386719 118.585938 19.386719 C 118.535156 19.386719 118.480469 19.335938 118.375 19.335938 C 118.269531 19.28125 118.160156 19.28125 118.054688 19.226563 C 117.949219 19.226563 117.789063 19.175781 117.683594 19.175781 C 117.578125 19.121094 117.46875 19.121094 117.257813 19.066406 C 117.097656 19.066406 116.886719 19.066406 116.726563 19.015625 C 116.460938 18.960938 116.191406 18.960938 115.929688 18.90625 C 115.660156 18.855469 115.34375 18.800781 114.96875 18.746094 C 114.546875 18.695313 114.117188 18.640625 113.746094 18.589844 C 113.320313 18.535156 112.949219 18.429688 112.628906 18.375 C 112.3125 18.269531 111.992188 18.214844 111.777344 18.109375 C 111.511719 18.058594 111.246094 17.949219 111.085938 17.84375 C 110.769531 17.738281 110.554688 17.578125 110.34375 17.472656 C 110.128906 17.3125 109.96875 17.152344 109.8125 16.992188 C 109.652344 16.832031 109.546875 16.675781 109.492188 16.460938 C 109.386719 16.300781 109.386719 16.089844 109.386719 15.929688 C 109.386719 15.769531 109.4375 15.664063 109.492188 15.503906 C 109.492188 15.398438 109.597656 15.289063 109.652344 15.183594 C 109.757813 15.078125 109.8125 14.972656 109.917969 14.863281 C 110.023438 14.757813 110.183594 14.652344 110.289063 14.597656 L 110.34375 14.546875 C 110.449219 14.492188 110.609375 14.386719 110.769531 14.332031 C 110.925781 14.28125 111.140625 14.171875 111.300781 14.121094 C 111.511719 14.066406 111.726563 14.015625 111.9375 13.960938 C 112.152344 13.90625 112.363281 13.90625 112.578125 13.855469 C 112.84375 13.800781 113.109375 13.800781 113.320313 13.800781 C 113.585938 13.746094 113.851563 13.746094 114.171875 13.746094 C 114.4375 13.746094 114.703125 13.746094 115.023438 13.746094 C 115.34375 13.746094 115.660156 13.800781 115.980469 13.800781 C 116.511719 13.800781 116.992188 13.855469 117.46875 13.90625 C 117.949219 13.960938 118.375 14.015625 118.800781 14.121094 C 119.226563 14.171875 119.597656 14.226563 119.917969 14.332031 C 120.289063 14.441406 120.554688 14.546875 120.875 14.652344 C 121.140625 14.757813 121.40625 14.863281 121.617188 15.023438 C 121.832031 15.132813 122.046875 15.289063 122.152344 15.449219 C 122.3125 15.609375 122.417969 15.769531 122.523438 15.929688 C 122.578125 16.089844 122.628906 16.246094 122.628906 16.460938 L 122.628906 16.515625 L 122.578125 16.515625 C 121.886719 16.515625 121.195313 16.460938 120.503906 16.460938 C 119.8125 16.40625 119.117188 16.40625 118.425781 16.355469 L 118.375 16.355469 C 118.375 16.300781 118.320313 16.300781 118.320313 16.300781 L 118.320313 16.246094 L 118.269531 16.246094 C 118.214844 16.195313 118.160156 16.140625 118.109375 16.140625 C 118.003906 16.089844 117.949219 16.035156 117.84375 15.980469 C 117.734375 15.980469 117.628906 15.929688 117.523438 15.875 C 117.363281 15.875 117.203125 15.824219 117.046875 15.824219 C 116.886719 15.769531 116.726563 15.769531 116.511719 15.714844 C 116.300781 15.714844 116.085938 15.714844 115.875 15.714844 C 115.609375 15.664063 115.394531 15.664063 115.183594 15.664063 C 114.96875 15.664063 114.757813 15.664063 114.597656 15.714844 C 114.386719 15.714844 114.226563 15.714844 114.066406 15.769531 C 113.90625 15.769531 113.800781 15.824219 113.640625 15.824219 C 113.585938 15.875 113.535156 15.875 113.480469 15.875 C 113.425781 15.929688 113.425781 15.929688 113.375 15.980469 L 113.375 16.035156 C 113.375 16.035156 113.425781 16.089844 113.480469 16.089844 C 113.480469 16.140625 113.535156 16.140625 113.640625 16.195313 C 113.746094 16.246094 113.851563 16.300781 114.011719 16.355469 C 114.226563 16.355469 114.386719 16.40625 114.652344 16.460938 C 114.917969 16.515625 115.234375 16.566406 115.554688 16.621094 C 115.875 16.675781 116.246094 16.726563 116.617188 16.78125 C 117.046875 16.832031 117.417969 16.886719 117.789063 16.9375 C 118.109375 16.992188 118.480469 17.046875 118.746094 17.097656 C 119.066406 17.152344 119.386719 17.207031 119.652344 17.257813 C 119.863281 17.3125 120.128906 17.363281 120.289063 17.417969 C 120.503906 17.472656 120.714844 17.523438 120.875 17.578125 C 121.085938 17.632813 121.246094 17.738281 121.40625 17.789063 C 121.566406 17.84375 121.726563 17.949219 121.886719 18.003906 C 122.046875 18.109375 122.152344 18.164063 122.257813 18.269531 C 122.417969 18.375 122.523438 18.429688 122.628906 18.535156 C 122.734375 18.640625 122.789063 18.746094 122.84375 18.90625 C 122.949219 19.015625 123.003906 19.121094 123.003906 19.28125 C 123.054688 19.386719 123.054688 19.546875 123.054688 19.652344 C 123.054688 19.8125 123.054688 19.917969 123.003906 20.023438 C 122.949219 20.183594 122.894531 20.289063 122.789063 20.449219 C 122.734375 20.558594 122.628906 20.664063 122.46875 20.769531 C 122.363281 20.875 122.257813 20.980469 122.097656 21.089844 C 121.9375 21.195313 121.777344 21.246094 121.617188 21.355469 C 121.460938 21.460938 121.246094 21.515625 121.035156 21.621094 L 120.929688 21.621094 C 120.769531 21.675781 120.609375 21.726563 120.394531 21.78125 C 120.183594 21.832031 119.917969 21.886719 119.703125 21.941406 C 119.4375 21.992188 119.171875 22.046875 118.90625 22.097656 C 118.585938 22.097656 118.269531 22.152344 118.003906 22.152344 C 117.683594 22.207031 117.363281 22.207031 116.992188 22.207031 C 116.671875 22.207031 116.300781 22.207031 115.929688 22.207031 C 115.394531 22.207031 114.917969 22.207031 114.4375 22.207031 C 113.960938 22.152344 113.480469 22.097656 113.054688 22.046875 C 112.683594 21.992188 112.257813 21.941406 111.9375 21.832031 C 111.566406 21.726563 111.191406 21.621094 110.875 21.515625 C 110.609375 21.40625 110.34375 21.246094 110.078125 21.089844 C 109.8125 20.929688 109.597656 20.769531 109.4375 20.609375 L 109.4375 20.558594 C 109.226563 20.398438 109.066406 20.183594 108.960938 19.972656 C 108.851563 19.757813 108.746094 19.546875 108.691406 19.28125 L 108.691406 19.175781 L 108.800781 19.175781 C 109.4375 19.226563 110.128906 19.226563 110.820313 19.28125 C 111.460938 19.335938 112.152344 19.335938 112.84375 19.386719 Z M 113.640625 16.195313 Z M 82.734375 13.746094 L 82.734375 13.746094 "/>
<path style=" stroke:none;fill-rule:evenodd;fill:rgb(13.699341%,12.199402%,12.5%);fill-opacity:1;" d="M 96.566406 35.398438 L 145.449219 35.398438 C 147.3125 79.175781 135.820313 119.921875 97.308594 141.941406 L 96.617188 142.261719 L 96.566406 142.316406 L 96.300781 142.15625 C 96.246094 142.15625 96.191406 142.101563 96.140625 142.101563 C 57.414063 120.132813 45.871094 79.28125 47.734375 35.398438 L 96.566406 35.398438 "/>
<path style=" stroke:none;fill-rule:evenodd;fill:rgb(100%,94.898987%,0%);fill-opacity:1;" d="M 96.566406 37.738281 L 143.320313 37.738281 C 145.128906 79.601563 134.117188 118.589844 97.257813 139.601563 L 96.617188 139.972656 L 96.566406 139.972656 L 96.566406 37.738281 "/>
<path style=" stroke:none;fill-rule:evenodd;fill:rgb(92.89856%,10.998535%,14.099121%);fill-opacity:1;" d="M 96.300781 37.738281 L 96.566406 37.738281 L 96.566406 139.972656 L 96.300781 139.816406 C 96.246094 139.816406 96.246094 139.761719 96.191406 139.761719 C 59.117188 118.75 48.054688 79.707031 49.863281 37.738281 L 96.300781 37.738281 "/>
<path style=" stroke:none;fill-rule:evenodd;fill:rgb(100%,100%,100%);fill-opacity:1;" d="M 96.617188 43.429688 L 96.617188 74.972656 C 82.042969 73.269531 72.84375 61.566406 69.914063 57.738281 C 69.96875 57.738281 70.074219 57.738281 70.128906 57.738281 C 71.457031 57.738281 72.46875 56.78125 72.46875 55.609375 C 72.414063 54.441406 71.351563 53.484375 70.074219 53.484375 C 69.757813 53.484375 69.492188 53.535156 69.222656 53.644531 C 69.222656 53.484375 69.222656 53.378906 69.222656 53.269531 C 69.222656 52.101563 68.320313 51.195313 67.203125 51.195313 C 66.085938 51.195313 65.179688 52.101563 65.179688 53.269531 C 65.179688 53.855469 65.449219 54.335938 65.820313 54.757813 C 65.925781 54.8125 66.03125 54.917969 66.140625 54.972656 C 65.339844 54.867188 63.640625 55.398438 63.640625 57.472656 C 63.640625 58.695313 64.757813 59.707031 66.140625 59.707031 C 66.566406 59.707031 66.988281 59.601563 67.308594 59.441406 C 73 74.601563 90.609375 79.707031 96.617188 82.632813 L 96.617188 134.121094 L 94.96875 132.3125 L 93.480469 129.972656 C 92.789063 128.855469 92.683594 128.21875 92.363281 127.6875 C 91.832031 126.78125 91.351563 126.410156 90.449219 126.515625 L 89.492188 126.039063 C 86.460938 124.390625 85.5 120.613281 85.183594 119.070313 L 86.9375 119.070313 C 97.152344 119.121094 94.96875 105.558594 95.234375 101.195313 L 92.894531 104.175781 L 92.097656 104.335938 L 91.246094 104.070313 L 89.703125 104.335938 L 87.789063 106.941406 L 87.628906 107.6875 L 88.375 108.378906 C 89.96875 109.972656 90.34375 112.417969 89.492188 113.804688 C 88.375 115.503906 85.660156 116.144531 85.820313 116.144531 L 85.394531 116.195313 C 85.128906 109.761719 80.183594 111.304688 79.917969 111.355469 L 79.542969 111.355469 C 79.277344 111.355469 79.757813 109.496094 79.171875 108.75 C 77.628906 106.941406 75.925781 108.378906 75.554688 107.898438 L 75.554688 107.367188 C 75.5 103.378906 72.152344 104.386719 72.097656 104.175781 L 71.9375 103.484375 L 71.882813 102.792969 C 71.882813 100.929688 73.53125 100.238281 74.492188 100.027344 C 77.734375 99.335938 83.585938 105.238281 82.523438 103.695313 L 84.703125 101.300781 L 84.4375 100.558594 L 83.53125 98.910156 L 87.949219 92.421875 C 90.449219 88.644531 84.757813 89.492188 85.554688 89.546875 L 79.703125 94.226563 L 78.90625 94.441406 L 78.214844 94.28125 L 75.660156 91.195313 L 75.394531 90.453125 L 75.765625 89.652344 L 78.425781 83.378906 L 78.425781 82.578125 L 77.949219 81.941406 L 77.308594 81.726563 L 76.617188 81.886719 L 72.363281 85.238281 L 71.832031 85.664063 L 71.246094 85.609375 L 70.5 85.1875 L 68.691406 83.21875 L 68.480469 82.738281 L 68.746094 82.046875 L 72.257813 76.992188 L 72.308594 76.355469 L 72.152344 75.71875 L 70.875 74.441406 L 70.289063 74.121094 L 69.863281 74.175781 L 65.820313 76.835938 L 65.128906 77.3125 L 64.648438 77.421875 L 64.332031 77.207031 L 62.308594 74.226563 L 62.203125 73.804688 L 62.46875 73.324219 L 66.511719 69.386719 L 66.617188 68.75 L 66.40625 68.21875 L 66.191406 67.632813 L 65.234375 66.355469 L 64.808594 66.089844 L 64.117188 66.300781 L 60.554688 67.898438 L 60.023438 68.058594 L 59.4375 67.898438 L 59.222656 67.527344 L 57.148438 62.046875 L 56.882813 61.195313 L 56.9375 60.824219 L 57.308594 60.71875 L 57.894531 60.503906 L 58.53125 59.652344 C 60.605469 56.835938 60.925781 53.21875 60.875 52.257813 L 61.296875 50.71875 C 61.617188 49.757813 62.308594 49.121094 62.734375 48.535156 C 67.148438 42.207031 77.789063 54.652344 78.425781 54.226563 L 78.53125 56.886719 C 78.585938 58.109375 78.746094 57.738281 77.84375 57.792969 C 77.414063 57.84375 77.042969 58.058594 76.722656 58.324219 C 76.191406 58.695313 76.511719 60.34375 76.722656 60.929688 C 77.949219 63.800781 82.949219 65.664063 85.289063 66.25 L 86.460938 66.566406 L 87.363281 66.726563 C 88.800781 66.941406 90.023438 57.152344 89.652344 55.132813 L 88.746094 54.335938 L 87.683594 53.269531 L 85.714844 50.664063 L 84.222656 48.269531 L 83.800781 46.78125 L 83.90625 46.25 L 84.492188 46.460938 C 88.269531 47.898438 87.628906 45.398438 86.882813 44.652344 L 86.300781 44.226563 C 84.277344 42.683594 81.40625 43.75 80.128906 43.960938 L 80.128906 43.109375 C 80.128906 40.023438 85.5 40.664063 87.417969 40.824219 L 87.949219 40.503906 C 90.394531 38.109375 94.332031 41.515625 96.617188 43.429688 Z M 89.4375 42.152344 C 89.011719 42.578125 89.226563 43.484375 89.863281 44.121094 C 90.554688 44.757813 91.460938 44.972656 91.882813 44.546875 C 92.308594 44.121094 92.097656 43.21875 91.40625 42.578125 C 90.714844 41.941406 89.863281 41.726563 89.4375 42.152344 "/>
<path style=" stroke:none;fill-rule:evenodd;fill:rgb(13.699341%,12.199402%,12.5%);fill-opacity:1;" d="M 96.726563 43.324219 L 96.726563 74.867188 C 111.351563 73.164063 120.554688 61.460938 123.429688 57.632813 C 123.375 57.632813 123.320313 57.632813 123.214844 57.632813 C 121.9375 57.632813 120.875 56.675781 120.875 55.503906 C 120.929688 54.335938 121.992188 53.378906 123.269531 53.378906 C 123.585938 53.378906 123.855469 53.429688 124.117188 53.535156 C 124.117188 53.378906 124.117188 53.269531 124.117188 53.164063 C 124.117188 51.992188 125.078125 51.089844 126.195313 51.089844 C 127.3125 51.089844 128.214844 51.992188 128.160156 53.164063 C 128.160156 53.75 127.894531 54.226563 127.523438 54.652344 C 127.46875 54.707031 127.363281 54.8125 127.257813 54.867188 C 128.054688 54.757813 129.703125 55.289063 129.757813 57.367188 C 129.703125 58.589844 128.589844 59.601563 127.257813 59.601563 C 126.832031 59.601563 126.40625 59.492188 126.035156 59.335938 C 120.34375 74.492188 102.789063 79.601563 96.726563 82.527344 L 96.777344 134.015625 L 98.425781 132.207031 L 99.863281 129.867188 C 100.554688 128.75 100.714844 128.113281 100.980469 127.582031 C 101.511719 126.675781 102.046875 126.304688 102.949219 126.410156 L 103.851563 125.929688 C 106.9375 124.28125 107.84375 120.503906 108.160156 118.964844 L 106.460938 118.964844 C 96.191406 119.015625 98.425781 105.453125 98.160156 101.089844 L 100.449219 104.070313 L 101.300781 104.226563 L 102.152344 103.960938 L 103.691406 104.226563 L 105.609375 106.835938 L 105.714844 107.578125 L 105.023438 108.273438 C 103.425781 109.867188 103.003906 112.3125 103.851563 113.695313 C 104.96875 115.398438 107.734375 116.039063 107.523438 116.039063 L 107.949219 116.089844 C 108.269531 109.65625 113.160156 111.195313 113.425781 111.25 L 113.800781 111.25 C 114.066406 111.25 113.585938 109.386719 114.226563 108.644531 C 115.714844 106.835938 117.417969 108.273438 117.789063 107.792969 L 117.789063 107.261719 C 117.84375 103.269531 121.195313 104.28125 121.300781 104.070313 L 121.460938 103.378906 L 121.460938 102.6875 C 121.460938 100.824219 119.863281 100.132813 118.851563 99.917969 C 115.609375 99.226563 109.8125 105.132813 110.820313 103.589844 L 108.640625 101.195313 L 108.90625 100.453125 L 109.8125 98.804688 L 105.449219 92.3125 C 102.894531 88.535156 108.640625 89.386719 107.789063 89.441406 L 113.691406 94.121094 L 114.4375 94.335938 L 115.128906 94.175781 L 117.734375 91.089844 L 117.949219 90.34375 L 117.628906 89.546875 L 114.917969 83.269531 L 114.917969 82.472656 L 115.449219 81.835938 L 116.085938 81.621094 L 116.777344 81.78125 L 120.980469 85.132813 L 121.511719 85.558594 L 122.097656 85.503906 L 122.894531 85.078125 L 124.652344 83.109375 L 124.863281 82.632813 L 124.597656 81.941406 L 121.140625 76.886719 L 121.085938 76.25 L 121.246094 75.609375 L 122.523438 74.335938 L 123.054688 74.015625 L 123.480469 74.066406 L 127.523438 76.726563 L 128.214844 77.207031 L 128.695313 77.3125 L 129.066406 77.101563 L 131.089844 74.121094 L 131.140625 73.695313 L 130.875 73.21875 L 126.886719 69.28125 L 126.726563 68.644531 L 126.9375 68.109375 L 127.203125 67.527344 L 128.109375 66.25 L 128.535156 65.984375 L 129.226563 66.195313 L 132.789063 67.792969 L 133.375 67.949219 L 133.90625 67.792969 L 134.117188 67.417969 L 136.195313 61.941406 L 136.511719 61.089844 L 136.40625 60.71875 L 136.089844 60.609375 L 135.449219 60.398438 L 134.8125 59.546875 C 132.789063 56.726563 132.46875 53.109375 132.523438 52.152344 L 132.046875 50.609375 C 131.726563 49.652344 131.035156 49.015625 130.609375 48.429688 C 126.195313 42.101563 115.554688 54.546875 114.917969 54.121094 L 114.8125 56.78125 C 114.8125 58.003906 114.652344 57.632813 115.503906 57.683594 C 115.980469 57.738281 116.351563 57.949219 116.671875 58.21875 C 117.203125 58.589844 116.886719 60.238281 116.617188 60.824219 C 115.449219 63.695313 110.449219 65.558594 108.054688 66.144531 L 106.9375 66.460938 L 106.035156 66.621094 C 104.597656 66.835938 103.320313 56.992188 103.746094 55.027344 L 104.597656 54.226563 L 105.660156 53.164063 L 107.628906 50.558594 L 109.117188 48.164063 L 109.597656 46.675781 L 109.4375 46.144531 L 108.90625 46.355469 C 105.074219 47.738281 105.714844 45.289063 106.460938 44.546875 L 107.046875 44.121094 C 109.066406 42.578125 111.9375 43.640625 113.214844 43.855469 L 113.214844 43.003906 C 113.214844 39.917969 107.84375 40.558594 105.925781 40.714844 L 105.394531 40.398438 C 102.949219 38.003906 99.011719 41.40625 96.726563 43.324219 Z M 103.960938 42.046875 C 104.332031 42.472656 104.171875 43.375 103.480469 44.015625 C 102.789063 44.652344 101.886719 44.867188 101.511719 44.441406 C 101.085938 44.015625 101.300781 43.109375 101.9375 42.472656 C 102.628906 41.78125 103.535156 41.621094 103.960938 42.046875 "/>
<path style=" stroke:none;fill-rule:evenodd;fill:rgb(100%,100%,100%);fill-opacity:1;" d="M 58 125.027344 C 57.363281 124.175781 56.722656 123.273438 56.085938 122.367188 C 58.214844 119.496094 60.339844 116.621094 62.46875 113.695313 C 63.320313 114.921875 64.171875 116.089844 65.023438 117.261719 C 64.277344 118.21875 63.585938 119.175781 62.894531 120.078125 C 64.066406 119.8125 65.234375 119.496094 66.40625 119.230469 C 66.9375 120.078125 67.523438 120.878906 68.105469 121.730469 C 67.414063 122.738281 66.777344 123.699219 66.085938 124.65625 C 67.203125 124.335938 68.320313 124.015625 69.4375 123.699219 C 70.289063 124.867188 71.085938 126.039063 71.882813 127.261719 C 68.425781 128.21875 65.023438 129.230469 61.617188 130.238281 C 60.980469 129.335938 60.339844 128.429688 59.757813 127.527344 C 60.554688 126.355469 61.351563 125.1875 62.148438 123.964844 C 60.765625 124.335938 59.382813 124.707031 58 125.027344 "/>
<path style=" stroke:none;fill-rule:evenodd;fill:rgb(100%,100%,100%);fill-opacity:1;" d="M 73.957031 129.390625 C 75.394531 130.929688 76.882813 132.472656 78.375 134.015625 C 79.066406 134.707031 79.542969 135.453125 79.757813 136.089844 C 80.074219 137.15625 79.808594 138.113281 78.957031 138.964844 C 78.214844 139.65625 77.414063 139.921875 76.457031 139.761719 C 76.40625 140.507813 76.191406 141.355469 75.820313 142.15625 C 75.449219 143.007813 74.96875 143.804688 74.332031 144.546875 C 73.214844 143.429688 72.152344 142.316406 71.085938 141.199219 C 71.9375 140.347656 72.523438 139.546875 72.734375 138.910156 C 73 138.21875 72.84375 137.632813 72.363281 137.15625 C 71.457031 138.007813 70.554688 138.910156 69.703125 139.761719 C 68.640625 138.699219 67.574219 137.582031 66.511719 136.515625 C 68.957031 134.121094 71.457031 131.730469 73.957031 129.390625 Z M 75.554688 134.121094 C 75.074219 134.546875 74.597656 135.027344 74.117188 135.507813 C 74.382813 135.773438 74.648438 135.984375 74.914063 136.039063 C 75.183594 136.144531 75.449219 136.039063 75.714844 135.773438 C 75.980469 135.558594 76.085938 135.292969 76.085938 135.027344 C 76.03125 134.761719 75.820313 134.441406 75.554688 134.121094 "/>
<path style=" stroke:none;fill-rule:evenodd;fill:rgb(100%,100%,100%);fill-opacity:1;" d="M 84.011719 148.804688 C 84.222656 148.964844 84.492188 149.015625 84.808594 148.964844 C 85.128906 148.910156 85.34375 148.804688 85.554688 148.539063 C 85.714844 148.273438 85.820313 148.007813 85.765625 147.738281 C 85.714844 147.421875 85.609375 147.207031 85.34375 146.996094 C 85.128906 146.835938 84.808594 146.730469 84.492188 146.78125 C 84.222656 146.835938 83.960938 146.996094 83.800781 147.207031 C 83.585938 147.472656 83.53125 147.738281 83.585938 148.058594 C 83.640625 148.324219 83.746094 148.589844 84.011719 148.804688 Z M 81.191406 152.472656 C 79.96875 151.570313 79.277344 150.347656 79.066406 148.855469 C 78.851563 147.316406 79.171875 145.929688 80.074219 144.707031 C 81.03125 143.539063 82.203125 142.792969 83.746094 142.582031 C 85.289063 142.367188 86.617188 142.738281 87.84375 143.644531 C 89.066406 144.546875 89.808594 145.773438 90.023438 147.316406 C 90.234375 148.804688 89.863281 150.1875 88.960938 151.410156 C 88.054688 152.632813 86.832031 153.324219 85.289063 153.539063 C 83.800781 153.75 82.414063 153.429688 81.191406 152.472656 "/>
<path style=" stroke:none;fill-rule:evenodd;fill:rgb(100%,100%,100%);fill-opacity:1;" d="M 107.523438 150.292969 C 107.363281 150.558594 107.203125 150.878906 107.046875 151.199219 C 106.511719 150.558594 105.980469 149.921875 105.449219 149.28125 C 105.609375 149.015625 105.769531 148.699219 105.925781 148.378906 C 105.074219 147.367188 104.226563 146.355469 103.375 145.347656 C 104.492188 144.390625 105.660156 143.429688 106.777344 142.527344 C 107.257813 143.058594 107.734375 143.644531 108.269531 144.230469 C 108.535156 143.699219 108.800781 143.21875 109.066406 142.6875 C 109.597656 143.324219 110.128906 143.910156 110.660156 144.546875 C 110.394531 145.082031 110.078125 145.613281 109.8125 146.089844 C 110.394531 146.835938 111.035156 147.527344 111.617188 148.273438 C 112.578125 147.421875 113.585938 146.570313 114.597656 145.773438 C 115.128906 146.410156 115.660156 147.046875 116.191406 147.6875 C 114.066406 149.496094 111.9375 151.25 109.8125 153.058594 C 109.066406 152.101563 108.269531 151.199219 107.523438 150.292969 "/>
<path style=" stroke:none;fill-rule:evenodd;fill:rgb(100%,100%,100%);fill-opacity:1;" d="M 122.097656 141.410156 C 121.035156 142.472656 120.023438 143.589844 118.960938 144.65625 C 117.363281 141.464844 115.820313 138.273438 114.226563 135.082031 C 115.714844 133.589844 117.257813 132.046875 118.851563 130.558594 C 121.9375 132.046875 125.023438 133.589844 128.214844 135.082031 C 127.152344 136.144531 126.140625 137.207031 125.078125 138.273438 C 124.546875 138.007813 124.011719 137.738281 123.480469 137.527344 C 122.734375 138.273438 121.992188 139.015625 121.246094 139.816406 C 121.511719 140.347656 121.777344 140.878906 122.097656 141.410156 Z M 121.246094 136.410156 C 120.449219 136.039063 119.703125 135.664063 118.90625 135.347656 C 119.277344 136.089844 119.703125 136.835938 120.078125 137.582031 C 120.449219 137.207031 120.875 136.835938 121.246094 136.410156 "/>
<path style=" stroke:none;fill-rule:evenodd;fill:rgb(100%,100%,100%);fill-opacity:1;" d="M 133.535156 127.3125 C 132.84375 128.21875 132.097656 129.121094 131.40625 129.972656 C 128.054688 129.121094 124.703125 128.21875 121.300781 127.3125 C 122.257813 126.144531 123.214844 124.921875 124.226563 123.699219 C 125.289063 124.015625 126.40625 124.335938 127.523438 124.601563 C 126.9375 123.644531 126.351563 122.6875 125.769531 121.78125 C 126.460938 120.929688 127.152344 120.078125 127.789063 119.230469 C 128.960938 119.441406 130.078125 119.707031 131.246094 119.972656 C 130.609375 119.070313 129.96875 118.164063 129.332031 117.207031 C 130.234375 116.039063 131.140625 114.8125 131.992188 113.644531 C 134.066406 116.410156 136.035156 119.230469 137.84375 122.046875 C 137.097656 122.953125 136.355469 123.855469 135.609375 124.761719 C 134.277344 124.441406 132.894531 124.175781 131.511719 123.855469 C 132.203125 124.972656 132.894531 126.144531 133.535156 127.3125 "/>
<path style=" stroke:none;fill-rule:evenodd;fill:rgb(100%,100%,100%);fill-opacity:1;" d="M 92.417969 152.847656 C 92.308594 152.046875 92.417969 151.304688 92.734375 150.558594 C 93.054688 149.921875 93.53125 149.28125 94.171875 148.75 L 94.171875 148.699219 C 94.757813 148.273438 95.34375 147.898438 95.980469 147.632813 C 96.617188 147.367188 97.308594 147.207031 98 147.15625 C 98.375 147.101563 98.800781 147.101563 99.226563 147.046875 C 99.652344 147.046875 100.074219 146.996094 100.503906 146.996094 C 100.503906 147.421875 100.554688 147.847656 100.609375 148.273438 C 100.660156 148.589844 100.660156 148.964844 100.714844 149.28125 C 100.769531 149.707031 100.769531 150.1875 100.820313 150.664063 C 100.394531 150.664063 99.917969 150.71875 99.492188 150.71875 C 99.117188 150.773438 98.800781 150.773438 98.480469 150.824219 C 98 150.824219 97.683594 150.929688 97.363281 151.039063 C 97.097656 151.144531 96.882813 151.304688 96.726563 151.464844 C 96.617188 151.621094 96.511719 151.835938 96.460938 151.996094 C 96.40625 152.15625 96.351563 152.367188 96.40625 152.582031 C 96.40625 152.792969 96.460938 152.953125 96.511719 153.113281 C 96.617188 153.273438 96.726563 153.429688 96.832031 153.589844 C 96.992188 153.75 97.257813 153.910156 97.523438 153.964844 C 97.84375 154.070313 98.269531 154.121094 98.800781 154.070313 C 99.171875 154.070313 99.492188 154.070313 99.808594 154.015625 C 100.289063 154.015625 100.714844 153.964844 101.140625 153.964844 C 101.140625 154.390625 101.191406 154.816406 101.246094 155.238281 C 101.246094 155.558594 101.300781 155.929688 101.351563 156.25 C 101.351563 156.675781 101.40625 157.15625 101.460938 157.632813 C 100.980469 157.632813 100.554688 157.6875 100.074219 157.6875 C 99.652344 157.738281 99.226563 157.738281 98.851563 157.792969 C 98 157.847656 97.257813 157.738281 96.511719 157.582031 C 95.769531 157.367188 95.128906 157.046875 94.492188 156.570313 C 93.851563 156.089844 93.375 155.558594 93 154.921875 C 92.683594 154.335938 92.46875 153.644531 92.417969 152.847656 "/>
<path style=" stroke:none;fill-rule:evenodd;fill:rgb(13.699341%,12.199402%,12.5%);fill-opacity:1;" d="M 33.105469 35.980469 L 160.554688 35.980469 L 160.554688 37.417969 L 33.105469 37.417969 L 33.105469 35.980469 "/>
<path style=" stroke:none;fill-rule:evenodd;fill:rgb(100%,94.898987%,0%);fill-opacity:1;" d="M 17.679688 58.21875 L 22.042969 62.152344 C 23.957031 63.800781 23.054688 57.417969 23.480469 55.984375 C 25.074219 50.769531 25.394531 51.25 25.394531 51.25 L 26.140625 62.417969 C 26.246094 63.535156 28.105469 61.355469 28.796875 61.089844 C 31.832031 59.867188 31.832031 60.183594 31.832031 60.183594 L 32.363281 51.089844 L 31.671875 41.835938 L 30.714844 41.726563 C 19.4375 46.460938 18.054688 55.503906 17.679688 58.21875 "/>
<path style=" stroke:none;fill-rule:evenodd;fill:rgb(100%,94.898987%,0%);fill-opacity:1;" d="M 29.703125 78.058594 L 26.511719 82.207031 C 25.234375 83.910156 23.265625 72.792969 22.574219 74.175781 L 22.308594 83.910156 C 22.253906 84.972656 20.660156 82.738281 19.914063 82.527344 C 16.5625 81.410156 17.253906 80.664063 17.253906 80.664063 L 16.03125 71.460938 L 16.828125 62.367188 L 17.839844 62.152344 C 28.214844 66.886719 27.574219 75.769531 29.703125 78.058594 "/>
<path style=" stroke:none;fill-rule:evenodd;fill:rgb(100%,94.898987%,0%);fill-opacity:1;" d="M 25.980469 66.089844 C 26.832031 66.726563 27.042969 67.527344 27.414063 67.898438 C 28 68.535156 28.480469 68.644531 28.585938 69.121094 C 28.585938 69.226563 28.640625 69.386719 28.640625 69.492188 C 28.691406 69.707031 29.96875 67.84375 30.179688 68.164063 C 30.5 68.644531 29.753906 71.515625 29.753906 72.738281 C 29.753906 73.804688 29.648438 75.292969 30.5 76.25 C 31.617188 77.421875 32.628906 78.589844 33.371094 78.910156 C 33.53125 79.015625 33.746094 78.910156 33.90625 78.804688 C 36.246094 77.738281 33.585938 69.121094 33.691406 67.101563 C 33.851563 62.738281 26.246094 62.152344 25.980469 66.089844 "/>
<path style=" stroke:none;fill-rule:evenodd;fill:rgb(100%,94.898987%,0%);fill-opacity:1;" d="M 26.511719 87.261719 L 29.808594 90.34375 L 31.191406 86.941406 C 31.617188 86.035156 31.988281 88.75 32.574219 91.089844 C 33.265625 94.015625 34.171875 96.996094 34.382813 98.484375 L 38.214844 98.644531 C 38.957031 98.695313 36.882813 90.132813 35.554688 85.984375 C 34.488281 82.738281 32.042969 81.035156 31.03125 80.078125 L 29.863281 80.878906 L 29.117188 81.886719 L 28.105469 83.429688 L 27.308594 84.921875 L 26.511719 87.261719 "/>
<path style=" stroke:none;fill-rule:evenodd;fill:rgb(100%,94.898987%,0%);fill-opacity:1;" d="M 32.734375 107.898438 L 36.296875 109.921875 L 37.308594 107.046875 C 38.054688 104.972656 40.179688 113.589844 40.289063 113.910156 L 45.605469 116.25 C 46.351563 116.570313 43.585938 109.121094 41.351563 105.292969 C 39.597656 102.261719 37.46875 100.878906 36.140625 100.078125 L 35.074219 101.035156 L 34.488281 102.15625 L 33.691406 103.855469 L 33.105469 105.453125 L 32.734375 107.898438 "/>
<path style=" stroke:none;fill-rule:evenodd;fill:rgb(100%,94.898987%,0%);fill-opacity:1;" d="M 30.339844 104.28125 C 32.523438 103.804688 23.265625 95.398438 24.753906 95.984375 L 31.511719 101.886719 C 32.257813 102.527344 32.042969 100.503906 32.46875 100.027344 C 34.4375 98.003906 33.371094 97.792969 33.371094 97.792969 L 28.214844 91.621094 L 19.382813 85.292969 C 17.734375 85.769531 18.691406 88.535156 18.636719 90.078125 C 18.585938 93.003906 21.085938 101.410156 23.746094 104.335938 C 23.90625 104.546875 24.117188 104.652344 24.277344 104.652344 C 24.863281 104.652344 25.449219 104.015625 25.980469 103.855469 C 26.617188 103.75 27.839844 103.378906 28 103.855469 C 28.320313 104.8125 28.957031 105.078125 29.648438 104.867188 C 29.863281 104.761719 30.128906 104.335938 30.339844 104.28125 "/>
<path style=" stroke:none;fill-rule:evenodd;fill:rgb(100%,94.898987%,0%);fill-opacity:1;" d="M 29.4375 126.355469 L 35.820313 127.527344 C 38 127.953125 29.753906 116.355469 31.40625 116.730469 L 38.746094 125.398438 C 39.488281 126.25 39.277344 120.984375 39.542969 120.347656 C 40.660156 117.472656 40.128906 116.515625 40.128906 116.515625 L 35.289063 112.046875 L 26.777344 107.046875 L 25.925781 107.84375 C 23.53125 117.582031 28.796875 123.589844 29.4375 126.355469 "/>
<path style=" stroke:none;fill-rule:evenodd;fill:rgb(100%,94.898987%,0%);fill-opacity:1;" d="M 48.054688 153.589844 L 48.265625 150.507813 L 47.574219 146.996094 C 47.203125 144.921875 44.757813 144.175781 45.074219 141.089844 C 45.074219 141.089844 46.9375 141.941406 47.097656 142.101563 L 49.171875 144.175781 C 49.96875 145.027344 50.449219 147.953125 51.191406 149.230469 C 51.191406 149.921875 53.90625 150.1875 53.90625 148.378906 C 53.90625 146.410156 53.746094 142.207031 52.628906 140.929688 C 51.457031 140.929688 51.085938 139.707031 50.234375 138.644531 C 48.160156 135.929688 46.671875 131.304688 46.671875 128.910156 C 47.734375 128.910156 52.308594 137.472656 52.308594 135.347656 C 52.308594 134.601563 53.214844 133.804688 53.105469 132.953125 C 52.257813 127.15625 47.734375 119.546875 42.097656 118.804688 C 39.808594 122.738281 41.085938 127.046875 42.839844 130.773438 C 43.796875 132.738281 45.554688 134.335938 45.554688 136.039063 C 41.617188 134.390625 38.957031 129.601563 33.425781 129.601563 C 33.425781 129.972656 33.105469 130.347656 33.214844 130.824219 C 34.488281 137.367188 42.203125 153.058594 48.054688 153.589844 "/>
<path style=" stroke:none;fill-rule:evenodd;fill:rgb(100%,94.898987%,0%);fill-opacity:1;" d="M 54.863281 135.613281 L 55.289063 142.792969 L 56.351563 149.230469 L 60.339844 151.144531 L 64.066406 152.472656 L 63.585938 150.773438 L 63.425781 149.230469 L 63.425781 147.6875 L 63.796875 146.835938 C 64.332031 145.613281 66.03125 150.082031 66.511719 151.199219 C 68.160156 155.238281 67.257813 155.238281 67.257813 155.238281 L 71.140625 157.472656 C 72.257813 150.664063 61.457031 140.929688 55.871094 136.199219 C 55.5 135.878906 55.179688 135.878906 54.863281 135.613281 "/>
<path style=" stroke:none;fill-rule:evenodd;fill:rgb(100%,94.898987%,0%);fill-opacity:1;" d="M 73.214844 174.65625 L 71.671875 169.921875 L 65.765625 166.464844 C 64.117188 165.507813 56.140625 159.230469 57.628906 159.015625 L 70.023438 166.199219 C 70.980469 166.730469 72.414063 164.015625 70.765625 161.25 C 68.585938 157.632813 63.054688 155.664063 59.171875 153.484375 L 54.96875 152.101563 L 51.988281 151.996094 L 49.808594 152.582031 L 49.4375 153.539063 C 49.757813 158.539063 55.714844 164.015625 61.617188 168.058594 C 66.722656 171.515625 71.832031 173.910156 73.214844 174.65625 "/>
<path style=" stroke:none;fill-rule:evenodd;fill:rgb(100%,94.898987%,0%);fill-opacity:1;" d="M 76.882813 165.507813 L 82.152344 171.515625 L 81.40625 164.867188 L 73.214844 156.941406 C 72.257813 156.039063 72.894531 166.039063 74.332031 171.941406 C 74.914063 174.125 75.449219 174.707031 76.296875 175.507813 C 78.957031 178.058594 81.140625 178.59375 82.628906 179.125 C 83.691406 179.441406 84.492188 179.601563 85.074219 179.601563 C 85.820313 179.601563 86.246094 179.390625 86.511719 179.070313 L 84.066406 174.707031 C 75.660156 169.65625 76.457031 166.144531 76.882813 165.507813 "/>
<path style=" stroke:none;fill-rule:evenodd;fill:rgb(100%,94.898987%,0%);fill-opacity:1;" d="M 116.140625 158.21875 C 117.417969 157.527344 117.949219 157.046875 118.960938 156.039063 C 120.449219 154.546875 124.652344 150.71875 126.300781 150.71875 C 126.460938 150.71875 126.566406 150.773438 126.726563 150.773438 C 128.214844 151.199219 128.320313 154.28125 127.894531 158.273438 C 127.46875 161.730469 126.089844 167.6875 124.546875 170.558594 C 123.269531 173.007813 121.617188 174.972656 119.8125 177.050781 C 117.628906 179.816406 113.109375 179.761719 111.566406 179.65625 C 111.671875 177.632813 113.320313 174.015625 114.703125 173.113281 C 114.96875 172.953125 115.183594 172.792969 115.394531 172.632813 C 115.714844 172.421875 115.929688 172.316406 115.929688 172.316406 L 115.929688 172.261719 C 117.417969 170.558594 118.800781 168.910156 119.757813 167.15625 C 120.503906 165.773438 122.152344 162.207031 122.3125 160.398438 C 121.351563 161.304688 117.417969 167.101563 116.085938 167.847656 L 116.511719 161.464844 Z M 122.84375 160.347656 C 123.320313 160.132813 123.585938 160.082031 123.054688 160.082031 C 122.84375 160.082031 122.84375 160.132813 122.84375 160.347656 "/>
<path style=" stroke:none;fill-rule:evenodd;fill:rgb(100%,94.898987%,0%);fill-opacity:1;" d="M 98.746094 180.933594 C 98.535156 180.664063 109.652344 188.484375 112.734375 172.207031 C 113.003906 170.824219 114.332031 169.015625 114.4375 167.261719 L 114.597656 164.496094 C 114.703125 163.113281 114.597656 161.996094 114.757813 160.613281 C 111.992188 161.515625 105.128906 164.65625 99.226563 174.65625 L 98.585938 175.71875 C 97.363281 175.132813 96.671875 172.582031 94.277344 170.132813 C 91.460938 167.261719 87.308594 163.113281 83.851563 162.847656 L 82.734375 162.742188 C 84.757813 180.773438 93.800781 182.367188 96.191406 182.792969 L 97.578125 181.996094 Z M 88.375 170.347656 C 88.800781 169.921875 90.554688 171.304688 92.308594 173.324219 C 94.066406 175.347656 95.183594 177.316406 94.757813 177.6875 C 94.386719 178.113281 92.578125 176.78125 90.820313 174.761719 C 89.066406 172.742188 87.949219 170.71875 88.375 170.347656 Z M 110.660156 170.398438 C 111.035156 170.824219 109.917969 173.007813 108.214844 175.242188 C 106.511719 177.472656 104.8125 178.964844 104.4375 178.539063 C 104.117188 178.113281 105.183594 175.984375 106.886719 173.699219 C 108.585938 171.464844 110.289063 169.972656 110.660156 170.398438 "/>
<path style=" stroke:none;fill-rule:evenodd;fill:rgb(100%,94.898987%,0%);fill-opacity:1;" d="M 128.054688 171.410156 C 128.054688 171.410156 130.554688 173.007813 140.660156 162.15625 C 142.84375 159.761719 146.460938 156.570313 146.671875 151.78125 L 146.671875 150.824219 C 145.023438 150.453125 142.363281 150.292969 139.652344 151.144531 C 134.8125 152.6875 129.757813 156.199219 129.8125 158.75 L 129.863281 163.804688 L 130.660156 163.804688 L 138.375 157.6875 L 138.800781 157.792969 L 138.480469 158.484375 L 129.117188 167.632813 L 128.480469 168.378906 L 128.214844 169.335938 L 128.054688 171.410156 "/>
<path style=" stroke:none;fill-rule:evenodd;fill:rgb(100%,94.898987%,0%);fill-opacity:1;" d="M 143.320313 131.890625 L 142.523438 146.570313 L 137.097656 149.601563 L 135.554688 149.335938 L 136.40625 142.847656 C 136.671875 140.878906 134.066406 146.144531 133.535156 147.316406 C 133.109375 148.21875 132.789063 148.964844 132.578125 149.601563 C 132.3125 150.1875 132.203125 152.421875 132.097656 152.792969 L 128.90625 155.027344 C 128.855469 142.632813 138.003906 135.878906 143.320313 131.890625 "/>
<path style=" stroke:none;fill-rule:evenodd;fill:rgb(100%,94.898987%,0%);fill-opacity:1;" d="M 143.375 147.421875 L 143.535156 143.058594 L 143.960938 139.546875 C 143.855469 139.390625 146.035156 139.230469 149.066406 131.996094 C 149.652344 130.613281 150.660156 125.1875 149.546875 127.046875 L 146.886719 131.515625 L 143.429688 130.507813 C 143.589844 130.292969 143.90625 130.132813 143.90625 129.867188 C 144.597656 124.121094 148.320313 118.964844 153.640625 117.207031 C 155.503906 120.824219 154.492188 122.792969 153.746094 126.515625 C 152.949219 130.347656 151.40625 132.847656 150.875 133.804688 L 151.777344 133.484375 L 155.769531 130.773438 L 157.949219 129.070313 L 160.183594 128.21875 L 160.929688 128.21875 C 161.621094 128.21875 159.492188 136.78125 158.109375 139.390625 C 151.246094 152.316406 148.960938 150.664063 148.960938 150.664063 L 148.589844 150.027344 L 148.855469 145.238281 L 149.4375 142.898438 L 150.929688 139.230469 L 149.863281 140.1875 L 148.480469 141.621094 L 147.628906 142.953125 L 146.886719 144.65625 L 146.300781 146.675781 L 145.980469 147.316406 L 143.375 147.421875 "/>
<path style=" stroke:none;fill-rule:evenodd;fill:rgb(100%,94.898987%,0%);fill-opacity:1;" d="M 155.238281 116.039063 L 155.820313 126.78125 L 159.121094 121.621094 L 162.683594 116.089844 L 163.054688 116.78125 L 158.855469 126.355469 C 158.214844 127.898438 160.503906 127.15625 160.664063 126.996094 C 161.671875 126.78125 165.664063 125.824219 165.714844 124.441406 L 166.355469 122.582031 C 170.820313 110.503906 167.84375 107.417969 167.738281 106.570313 L 166.886719 106.570313 L 166.035156 106.941406 C 160.714844 109.386719 158.320313 112.578125 157.097656 114.121094 C 155.875 115.664063 155.238281 116.039063 155.238281 116.039063 "/>
<path style=" stroke:none;fill-rule:evenodd;fill:rgb(100%,94.898987%,0%);fill-opacity:1;" d="M 156.9375 100.769531 L 152.097656 105.558594 L 151.511719 106.304688 L 150.929688 107.367188 C 150.078125 109.015625 145.660156 120.132813 149.066406 116.996094 C 150.714844 115.503906 152.628906 114.441406 154.597656 113.21875 L 155.820313 108.804688 L 156.140625 107.738281 L 156.566406 107.15625 L 157.152344 107.046875 L 157.363281 107.84375 L 157.523438 109.441406 L 158.054688 109.546875 L 158.960938 108.910156 L 161.40625 106.835938 L 161.886719 106.464844 L 161.992188 105.929688 L 161.886719 105.34375 L 161.671875 104.496094 C 159.972656 99.226563 157.789063 100.292969 157.628906 100.34375 L 156.9375 100.769531 "/>
<path style=" stroke:none;fill-rule:evenodd;fill:rgb(100%,94.898987%,0%);fill-opacity:1;" d="M 166.460938 81.460938 L 165.449219 79.921875 L 164.386719 79.066406 C 163.003906 77.898438 159.171875 83.695313 157.472656 88.855469 C 156.195313 92.84375 155.929688 98.058594 155.660156 100.292969 C 157.578125 99.386719 158.746094 97.417969 161.089844 97.417969 L 161.300781 96.035156 C 163.320313 83.535156 164.171875 85.664063 165.128906 88.75 L 165.769531 88.695313 L 167.3125 87.472656 L 168.164063 86.621094 L 168.429688 85.824219 L 168.375 85.078125 L 167.894531 84.226563 L 166.460938 81.460938 "/>
<path style=" stroke:none;fill-rule:evenodd;fill:rgb(100%,94.898987%,0%);fill-opacity:1;" d="M 175.183594 83.695313 L 175.503906 83.960938 C 176.035156 86.035156 174.972656 92.6875 174.597656 94.335938 C 174.121094 96.675781 173.375 99.386719 171.832031 102.527344 L 171.515625 103.164063 L 171.246094 103.695313 L 170.929688 103.804688 L 170.503906 103.589844 L 170.023438 102.953125 L 169.546875 102.527344 L 168.695313 102.472656 L 168.109375 102.527344 L 167.523438 102.792969 L 166.886719 103.269531 C 166.78125 103.644531 163.695313 104.070313 165.554688 101.621094 L 170.503906 94.972656 L 170.503906 94.441406 L 170.238281 94.175781 L 169.8125 94.28125 L 166.089844 98.484375 C 166.035156 98.644531 165.023438 101.410156 164.226563 99.707031 L 163.320313 97.738281 C 162.949219 97.046875 162.152344 95.984375 163.164063 94.972656 L 174.546875 83.804688 L 175.183594 83.695313 "/>
<path style=" stroke:none;fill-rule:evenodd;fill:rgb(100%,94.898987%,0%);fill-opacity:1;" d="M 162.097656 60.664063 L 161.195313 62.84375 L 160.714844 64.8125 L 160.289063 67.527344 L 160.183594 70.238281 L 159.757813 78.003906 L 159.703125 80.027344 L 160.078125 80.078125 L 160.664063 79.492188 L 161.515625 78.484375 L 162.578125 76.675781 L 163.535156 75.078125 L 163.960938 74.335938 L 163.640625 70.824219 L 163.695313 68.164063 L 164.015625 66.726563 L 164.4375 66.089844 L 164.8125 66.460938 L 165.183594 67.101563 L 165.664063 67.417969 L 166.300781 67.152344 L 167.578125 65.71875 L 167.789063 65.027344 C 167.84375 64.492188 167.789063 63.910156 167.363281 63.910156 L 165.929688 62.84375 L 164.171875 61.621094 L 162.789063 60.769531 L 162.097656 60.664063 "/>
<path style=" stroke:none;fill-rule:evenodd;fill:rgb(100%,94.898987%,0%);fill-opacity:1;" d="M 176.9375 69.386719 L 176.726563 59.917969 C 176.726563 58.75 172.472656 60.984375 170.238281 64.386719 C 165.980469 70.878906 165.769531 74.652344 165.664063 76.355469 L 167.203125 79.492188 L 168.109375 80.503906 L 168.589844 80.769531 L 168.960938 80.609375 L 169.121094 79.921875 C 169.015625 77.632813 170.34375 74.707031 171.40625 72.261719 L 171.78125 72.101563 L 171.621094 78.058594 L 171.515625 82.898438 C 171.460938 84.121094 174.015625 81.570313 174.492188 80.929688 C 175.023438 80.34375 176.460938 79.175781 176.460938 79.175781 L 176.832031 75.238281 L 176.992188 72.738281 L 176.9375 69.386719 "/>
<path style=" stroke:none;fill-rule:evenodd;fill:rgb(100%,94.898987%,0%);fill-opacity:1;" d="M 161.355469 41.40625 L 160.980469 56.941406 L 167.894531 61.195313 L 167.203125 49.601563 C 167.152344 48.695313 167.417969 48.960938 167.683594 49.121094 C 168.695313 49.8125 171.460938 58.269531 171.355469 60.289063 C 171.300781 62.3125 175.132813 56.25 175.132813 56.25 C 175.078125 55.769531 174.863281 55.398438 174.863281 55.078125 L 172.363281 50.238281 L 169.171875 46.144531 L 165.769531 43.535156 L 162.257813 41.675781 L 161.355469 41.40625 "/>
</g>
</svg>
