<?xml version="1.0" encoding="iso-8859-1"?>
<!-- Generator: Adobe Illustrator 19.0.0, SVG Export Plug-In . SVG Version: 6.00 Build 0)  -->
<svg version="1.1" id="Layer_1" xmlns="http://www.w3.org/2000/svg" xmlns:xlink="http://www.w3.org/1999/xlink" x="0px" y="0px"
	 viewBox="0 0 489 489" style="enable-background:new 0 0 489 489;" xml:space="preserve">
<g>
	<g id="XMLID_28_">
		<g>
			<polygon style="fill:#FFFFFF;" points="399.5,354.5 399.5,479.5 89.5,479.5 89.5,354.5 89.5,309.5 89.5,269.5 399.5,269.5 
				399.5,309.5 			"/>
			<polygon style="fill:#FFFFFF;" points="399.5,29.5 399.5,119.5 89.5,119.5 89.5,29.5 89.5,9.5 399.5,9.5 			"/>
			<polygon style="fill:#E7ECED;" points="99.5,159.5 139.5,159.5 139.5,199.5 59.5,199.5 59.5,159.5 			"/>
			<path style="fill:#AFB6BB;" d="M479.5,139.5v215h-80v-45h30v-40h-30h-310h-30v40h30v45h-80v-215c0-10.996,9.004-20,20-20h25h35
				h310h35h25C470.496,119.5,479.5,128.504,479.5,139.5z M139.5,199.5v-40h-40h-40v40H139.5z"/>
			<rect x="399.5" y="29.5" style="fill:#546A79;" width="35" height="90"/>
			<rect x="54.5" y="29.5" style="fill:#546A79;" width="35" height="90"/>
			<rect x="59.5" y="269.5" style="fill:#546A79;" width="30" height="40"/>
			<rect x="399.5" y="269.5" style="fill:#546A79;" width="30" height="40"/>
		</g>
		<g>
			<path style="fill:#231F20;" d="M459.5,110H444V29.5c0-5.247-4.253-9.5-9.5-9.5H409V9.5c0-5.247-4.253-9.5-9.5-9.5h-310
				C84.253,0,80,4.253,80,9.5V20H54.5c-5.247,0-9.5,4.253-9.5,9.5V110H29.5C13.233,110,0,123.233,0,139.5v215
				c0,5.247,4.253,9.5,9.5,9.5H80v115.5c0,5.247,4.253,9.5,9.5,9.5h310c5.247,0,9.5-4.253,9.5-9.5V364h70.5
				c5.247,0,9.5-4.253,9.5-9.5v-215C489,123.233,475.767,110,459.5,110z M425,39v71h-16V39H425z M99,19h291v91H99V19z M64,39h16v71
				H64V39z M80,300H69v-21h11V300z M390,470H99V279h291V470z M409,279h11v21h-11V279z M470,345h-61v-26h20.5
				c5.247,0,9.5-4.253,9.5-9.5v-40c0-5.247-4.253-9.5-9.5-9.5h-370c-5.247,0-9.5,4.253-9.5,9.5v40c0,5.247,4.253,9.5,9.5,9.5H80v26
				H19V139.5c0-5.79,4.71-10.5,10.5-10.5h430c5.79,0,10.5,4.71,10.5,10.5V345z"/>
			<path style="fill:#231F20;" d="M139.5,150h-80c-5.247,0-9.5,4.253-9.5,9.5v40c0,5.247,4.253,9.5,9.5,9.5h80
				c5.247,0,9.5-4.253,9.5-9.5v-40C149,154.253,144.747,150,139.5,150z M130,190H69v-21h21v15.5h19V169h21V190z"/>
			<rect x="404.5" y="155" style="fill:#231F20;" width="35" height="19"/>
			<rect x="389.5" y="185" style="fill:#231F20;" width="50" height="19"/>
			<rect x="194.5" y="210" style="fill:#231F20;" width="100" height="19"/>
			<rect x="204.5" y="175" style="fill:#231F20;" width="80" height="19"/>
			<rect x="129.5" y="405" style="fill:#231F20;" width="190" height="19"/>
			<rect x="129.5" y="365" style="fill:#231F20;" width="230" height="19"/>
			<rect x="129.5" y="325" style="fill:#231F20;" width="230" height="19"/>
		</g>
	</g>
</g>
<g>
</g>
<g>
</g>
<g>
</g>
<g>
</g>
<g>
</g>
<g>
</g>
<g>
</g>
<g>
</g>
<g>
</g>
<g>
</g>
<g>
</g>
<g>
</g>
<g>
</g>
<g>
</g>
<g>
</g>
</svg>
